<svg width="450" height="450" viewBox="0 0 450 450" fill="none" xmlns="http://www.w3.org/2000/svg">
<g clip-path="url(#clip0_177_3)">
<path d="M988.783 0H-527.271C-537.837 0 -546.401 9.91861 -546.401 22.1538V427.846C-546.401 440.081 -537.837 450 -527.271 450H988.783C999.348 450 1007.91 440.081 1007.91 427.846V22.1538C1007.91 9.91861 999.348 0 988.783 0Z" fill="#E6E6E6"/>
<path d="M290.5 133H158.501C149.401 133 142 140.344 142 149.375V247.625C142 256.657 149.401 264 158.501 264H290.5C299.6 264 307 256.657 307 247.625V149.375C307 140.344 299.6 133 290.5 133ZM179.126 157.563C182.407 157.563 185.554 158.856 187.876 161.159C190.197 163.462 191.5 166.586 191.5 169.844C191.5 173.101 190.197 176.225 187.876 178.528C185.554 180.831 182.407 182.126 179.126 182.126C175.843 182.126 172.696 180.831 170.375 178.528C168.055 176.225 166.75 173.101 166.75 169.844C166.75 166.586 168.055 163.462 170.375 161.159C172.696 158.856 175.843 157.563 179.126 157.563ZM224.501 239.437H166.75L199.75 198.5L212.125 214.875L236.875 182.126L282.25 239.437H224.501Z" fill="#BABABA"/>
<path d="M106.426 293.375V312.485H102.816L93.343 300.883V312.485H89V293.375H92.6372L102.083 304.978V293.375H106.426ZM117.572 312.704C116.034 312.704 114.649 312.385 113.419 311.748C112.206 311.093 111.256 310.192 110.569 309.046C109.881 307.899 109.537 306.598 109.537 305.142C109.537 303.686 109.881 302.384 110.569 301.238C111.256 300.091 112.206 299.199 113.419 298.562C114.649 297.907 116.034 297.579 117.572 297.579C119.11 297.579 120.485 297.907 121.698 298.562C122.91 299.199 123.86 300.091 124.548 301.238C125.235 302.384 125.579 303.686 125.579 305.142C125.579 306.598 125.235 307.899 124.548 309.046C123.86 310.192 122.91 311.093 121.698 311.748C120.485 312.385 119.11 312.704 117.572 312.704ZM117.572 309.209C118.657 309.209 119.544 308.845 120.232 308.117C120.938 307.371 121.29 306.379 121.29 305.142C121.29 303.904 120.938 302.921 120.232 302.193C119.544 301.447 118.657 301.074 117.572 301.074C116.486 301.074 115.59 301.447 114.885 302.193C114.179 302.921 113.826 303.904 113.826 305.142C113.826 306.379 114.179 307.371 114.885 308.117C115.59 308.845 116.486 309.209 117.572 309.209ZM136.395 293.375H140.792V312.485H136.395V293.375ZM163.704 297.579C165.532 297.579 166.979 298.125 168.047 299.217C169.133 300.291 169.676 301.911 169.676 304.077V312.485H165.441V304.732C165.441 303.567 165.197 302.703 164.708 302.139C164.238 301.556 163.559 301.265 162.673 301.265C161.677 301.265 160.89 301.593 160.311 302.248C159.732 302.885 159.443 303.84 159.443 305.114V312.485H155.208V304.732C155.208 302.421 154.285 301.265 152.44 301.265C151.462 301.265 150.684 301.593 150.105 302.248C149.526 302.885 149.237 303.84 149.237 305.114V312.485H145.002V297.798H149.047V299.49C149.59 298.872 150.25 298.398 151.028 298.071C151.824 297.743 152.693 297.579 153.634 297.579C154.665 297.579 155.597 297.789 156.43 298.207C157.262 298.608 157.932 299.199 158.438 299.982C159.035 299.217 159.786 298.626 160.691 298.207C161.614 297.789 162.618 297.579 163.704 297.579ZM179.361 297.579C181.623 297.579 183.36 298.125 184.573 299.217C185.785 300.291 186.391 301.92 186.391 304.104V312.485H182.428V310.656C181.632 312.021 180.148 312.704 177.977 312.704C176.855 312.704 175.878 312.513 175.045 312.13C174.231 311.748 173.607 311.22 173.173 310.547C172.738 309.874 172.521 309.109 172.521 308.254C172.521 306.889 173.028 305.815 174.041 305.032C175.073 304.25 176.656 303.858 178.791 303.858H182.157C182.157 302.93 181.877 302.22 181.316 301.729C180.755 301.219 179.913 300.965 178.791 300.965C178.013 300.965 177.244 301.092 176.484 301.347C175.742 301.583 175.109 301.911 174.584 302.33L173.064 299.354C173.86 298.79 174.81 298.353 175.914 298.043C177.036 297.734 178.185 297.579 179.361 297.579ZM179.036 309.837C179.759 309.837 180.402 309.673 180.963 309.346C181.524 309 181.922 308.499 182.157 307.844V306.343H179.253C177.516 306.343 176.647 306.916 176.647 308.063C176.647 308.609 176.855 309.046 177.271 309.373C177.706 309.683 178.294 309.837 179.036 309.837ZM205.447 297.798V310.028C205.447 312.722 204.751 314.724 203.357 316.034C201.964 317.345 199.928 318 197.25 318C195.838 318 194.499 317.827 193.233 317.481C191.966 317.135 190.916 316.635 190.084 315.98L191.767 312.922C192.382 313.432 193.16 313.832 194.101 314.123C195.042 314.433 195.983 314.587 196.924 314.587C198.39 314.587 199.467 314.251 200.154 313.577C200.86 312.922 201.213 311.921 201.213 310.574V309.946C200.109 311.166 198.571 311.776 196.598 311.776C195.259 311.776 194.029 311.484 192.907 310.902C191.803 310.301 190.926 309.464 190.274 308.39C189.623 307.316 189.297 306.079 189.297 304.677C189.297 303.276 189.623 302.038 190.274 300.965C190.926 299.891 191.803 299.063 192.907 298.48C194.029 297.88 195.259 297.579 196.598 297.579C198.716 297.579 200.326 298.28 201.43 299.682V297.798H205.447ZM197.44 308.281C198.562 308.281 199.476 307.953 200.181 307.298C200.905 306.625 201.267 305.751 201.267 304.677C201.267 303.604 200.905 302.739 200.181 302.084C199.476 301.411 198.562 301.074 197.44 301.074C196.318 301.074 195.395 301.411 194.671 302.084C193.947 302.739 193.586 303.604 193.586 304.677C193.586 305.751 193.947 306.625 194.671 307.298C195.395 307.953 196.318 308.281 197.44 308.281ZM223.693 305.196C223.693 305.251 223.666 305.633 223.612 306.343H212.564C212.763 307.253 213.234 307.972 213.976 308.5C214.718 309.027 215.641 309.291 216.745 309.291C217.505 309.291 218.174 309.182 218.753 308.964C219.35 308.727 219.902 308.363 220.409 307.872L222.662 310.329C221.286 311.912 219.278 312.704 216.636 312.704C214.989 312.704 213.533 312.385 212.266 311.748C210.999 311.093 210.022 310.192 209.334 309.046C208.647 307.899 208.303 306.598 208.303 305.142C208.303 303.704 208.638 302.412 209.307 301.265C209.995 300.1 210.927 299.199 212.103 298.562C213.297 297.907 214.627 297.579 216.093 297.579C217.523 297.579 218.816 297.889 219.975 298.508C221.133 299.126 222.037 300.018 222.689 301.183C223.358 302.33 223.693 303.667 223.693 305.196ZM216.12 300.801C215.161 300.801 214.356 301.074 213.704 301.62C213.053 302.166 212.655 302.912 212.51 303.858H219.703C219.558 302.93 219.16 302.193 218.509 301.647C217.857 301.083 217.061 300.801 216.12 300.801ZM247.012 308.39H238.19L236.507 312.485H232.001L240.47 293.375H244.813L253.309 312.485H248.694L247.012 308.39ZM245.627 305.032L242.614 297.716L239.601 305.032H245.627ZM268.707 297.798L262.545 312.485H258.175L252.041 297.798H256.411L260.455 307.79L264.635 297.798H268.707ZM275.848 297.579C278.11 297.579 279.847 298.125 281.06 299.217C282.272 300.291 282.878 301.92 282.878 304.104V312.485H278.915V310.656C278.119 312.021 276.635 312.704 274.464 312.704C273.342 312.704 272.365 312.513 271.532 312.13C270.718 311.748 270.094 311.22 269.659 310.547C269.225 309.874 269.008 309.109 269.008 308.254C269.008 306.889 269.515 305.815 270.528 305.032C271.559 304.25 273.143 303.858 275.278 303.858H278.644C278.644 302.93 278.363 302.22 277.802 301.729C277.241 301.219 276.4 300.965 275.278 300.965C274.5 300.965 273.731 301.092 272.971 301.347C272.229 301.583 271.595 301.911 271.071 302.33L269.551 299.354C270.347 298.79 271.297 298.353 272.401 298.043C273.523 297.734 274.672 297.579 275.848 297.579ZM275.522 309.837C276.246 309.837 276.888 309.673 277.449 309.346C278.01 309 278.408 308.499 278.644 307.844V306.343H275.739C274.002 306.343 273.134 306.916 273.134 308.063C273.134 308.609 273.342 309.046 273.758 309.373C274.192 309.683 274.78 309.837 275.522 309.837ZM286.71 297.798H290.944V312.485H286.71V297.798ZM288.827 295.75C288.049 295.75 287.416 295.523 286.927 295.068C286.438 294.613 286.194 294.049 286.194 293.375C286.194 292.702 286.438 292.138 286.927 291.683C287.416 291.228 288.049 291 288.827 291C289.605 291 290.238 291.218 290.727 291.655C291.216 292.092 291.46 292.638 291.46 293.293C291.46 294.003 291.216 294.595 290.727 295.068C290.238 295.523 289.605 295.75 288.827 295.75ZM294.874 292.229H299.109V312.485H294.874V292.229ZM308.929 297.579C311.191 297.579 312.928 298.125 314.14 299.217C315.353 300.291 315.959 301.92 315.959 304.104V312.485H311.996V310.656C311.2 312.021 309.716 312.704 307.545 312.704C306.423 312.704 305.446 312.513 304.613 312.13C303.799 311.748 303.175 311.22 302.74 310.547C302.306 309.874 302.089 309.109 302.089 308.254C302.089 306.889 302.595 305.815 303.609 305.032C304.64 304.25 306.224 303.858 308.359 303.858H311.725C311.725 302.93 311.444 302.22 310.883 301.729C310.322 301.219 309.481 300.965 308.359 300.965C307.581 300.965 306.812 301.092 306.052 301.347C305.31 301.583 304.676 301.911 304.152 302.33L302.632 299.354C303.428 298.79 304.378 298.353 305.482 298.043C306.604 297.734 307.753 297.579 308.929 297.579ZM308.603 309.837C309.327 309.837 309.969 309.673 310.53 309.346C311.091 309 311.489 308.499 311.725 307.844V306.343H308.82C307.083 306.343 306.215 306.916 306.215 308.063C306.215 308.609 306.423 309.046 306.839 309.373C307.273 309.683 307.861 309.837 308.603 309.837ZM328.422 297.579C329.78 297.579 331.01 297.898 332.114 298.535C333.236 299.154 334.113 300.036 334.747 301.183C335.38 302.311 335.697 303.631 335.697 305.142C335.697 306.652 335.38 307.981 334.747 309.127C334.113 310.256 333.236 311.139 332.114 311.776C331.01 312.394 329.78 312.704 328.422 312.704C326.414 312.704 324.885 312.067 323.835 310.793V312.485H319.791V292.229H324.025V299.354C325.093 298.171 326.559 297.579 328.422 297.579ZM327.689 309.209C328.775 309.209 329.662 308.845 330.35 308.117C331.055 307.371 331.408 306.379 331.408 305.142C331.408 303.904 331.055 302.921 330.35 302.193C329.662 301.447 328.775 301.074 327.689 301.074C326.604 301.074 325.708 301.447 325.002 302.193C324.315 302.921 323.971 303.904 323.971 305.142C323.971 306.379 324.315 307.371 325.002 308.117C325.708 308.845 326.604 309.209 327.689 309.209ZM338.532 292.229H342.766V312.485H338.532V292.229ZM361 305.196C361 305.251 360.973 305.633 360.919 306.343H349.871C350.07 307.253 350.541 307.972 351.283 308.5C352.025 309.027 352.947 309.291 354.051 309.291C354.811 309.291 355.481 309.182 356.06 308.964C356.657 308.727 357.209 308.363 357.716 307.872L359.969 310.329C358.593 311.912 356.585 312.704 353.943 312.704C352.296 312.704 350.839 312.385 349.573 311.748C348.306 311.093 347.329 310.192 346.641 309.046C345.954 307.899 345.61 306.598 345.61 305.142C345.61 303.704 345.944 302.412 346.614 301.265C347.302 300.1 348.234 299.199 349.41 298.562C350.604 297.907 351.934 297.579 353.4 297.579C354.829 297.579 356.123 297.889 357.281 298.508C358.439 299.126 359.344 300.018 359.996 301.183C360.665 302.33 361 303.667 361 305.196ZM353.427 300.801C352.468 300.801 351.663 301.074 351.011 301.62C350.36 302.166 349.962 302.912 349.817 303.858H357.01C356.865 302.93 356.467 302.193 355.816 301.647C355.164 301.083 354.368 300.801 353.427 300.801Z" fill="#9A9A9A"/>
</g>
<defs>
<clipPath id="clip0_177_3">
<rect width="450" height="450" rx="20" fill="white"/>
</clipPath>
</defs>
</svg>
