<svg width="300" height="300" viewBox="0 0 300 300" fill="none" xmlns="http://www.w3.org/2000/svg">
<path d="M43.9322 235.469H173.356C174.045 235.469 174.605 236.035 174.605 236.734C174.605 237.433 174.046 237.999 173.356 237.999H43.9763C43.3126 237.999 42.7315 237.493 42.6875 236.821C42.662 236.438 42.806 236.088 43.05 235.839C43.2754 235.61 43.5883 235.469 43.9322 235.469Z" fill="#4D4D4D" fill-opacity="0.1"/>
<path d="M278.12 236.735C278.12 237.084 277.978 237.4 277.749 237.63C277.519 237.859 277.204 238 276.854 238H183.122C182.422 238 181.855 237.434 181.855 236.735C181.855 236.036 182.422 235.469 183.122 235.469H276.854C277.553 235.469 278.12 236.036 278.12 236.735Z" fill="#4D4D4D" fill-opacity="0.1"/>
<path d="M35.5735 237.999H23.2665C22.5674 237.999 22 237.433 22 236.734C22 236.036 22.5668 235.469 23.2665 235.469H35.5735C36.2726 235.469 36.84 236.035 36.84 236.734C36.84 237.432 36.2732 237.999 35.5735 237.999Z" fill="#4D4D4D" fill-opacity="0.1"/>
<path d="M158.395 138.596L143.565 135.483L145.117 137.533L142.317 139.886L158.698 141.424L158.395 138.596Z" fill="url(#paint0_linear_16650_61962)"/>
<path d="M160.437 138.596L175.266 135.483L173.715 137.533L176.515 139.886L160.134 141.424L160.437 138.596Z" fill="url(#paint1_linear_16650_61962)"/>
<path d="M148.032 130.447C148.357 130.232 148.755 130.159 149.135 130.244L151.748 130.827C152.092 130.904 152.392 131.112 152.586 131.406L158.072 139.773L159.037 138.861L153.336 128.837C152.893 128.058 152.084 127.561 151.191 127.518L148.824 127.406C147.15 127.326 145.6 128.293 144.93 129.835L144.04 131.888C143.607 132.886 144.043 134.048 145.024 134.512L156.881 140.114L157.335 139.716L148.176 133.286C147.569 132.859 147.268 132.114 147.408 131.383C147.481 130.999 147.707 130.661 148.032 130.447V130.447Z" fill="url(#paint2_linear_16650_61962)"/>
<path d="M170.085 130.447C169.759 130.232 169.361 130.159 168.981 130.244L166.368 130.827C166.024 130.903 165.724 131.112 165.531 131.406L160.044 139.773L159.08 138.861L164.78 128.837C165.223 128.058 166.033 127.561 166.925 127.518L169.292 127.406C170.967 127.326 172.517 128.293 173.186 129.835L174.076 131.888C174.509 132.886 174.073 134.048 173.092 134.512L161.235 140.114L160.781 139.716L169.94 133.286C170.547 132.859 170.848 132.114 170.708 131.383C170.635 130.999 170.41 130.661 170.084 130.447L170.085 130.447Z" fill="url(#paint3_linear_16650_61962)"/>
<path d="M124.587 159.058L109.758 155.945L111.309 157.995L108.51 160.349L124.89 161.887L124.587 159.058Z" fill="url(#paint4_linear_16650_61962)"/>
<path d="M126.629 159.058L141.458 155.945L139.908 157.995L142.707 160.349L126.327 161.887L126.629 159.058Z" fill="url(#paint5_linear_16650_61962)"/>
<path d="M114.224 150.909C114.55 150.694 114.948 150.621 115.328 150.706L117.941 151.289C118.284 151.366 118.585 151.574 118.778 151.869L124.265 160.235L125.229 159.324L119.529 149.3C119.086 148.521 118.276 148.023 117.383 147.981L115.017 147.868C113.342 147.789 111.792 148.756 111.123 150.298L110.232 152.35C109.799 153.348 110.235 154.511 111.216 154.975L123.073 160.577L123.527 160.178L114.369 153.748C113.761 153.322 113.46 152.576 113.6 151.845C113.674 151.461 113.899 151.124 114.224 150.91V150.909Z" fill="url(#paint6_linear_16650_61962)"/>
<path d="M136.277 150.909C135.952 150.694 135.554 150.621 135.173 150.706L132.561 151.289C132.217 151.366 131.917 151.574 131.723 151.869L126.237 160.235L125.272 159.324L130.973 149.3C131.416 148.521 132.225 148.023 133.118 147.98L135.485 147.868C137.159 147.789 138.709 148.756 139.378 150.298L140.269 152.35C140.702 153.348 140.266 154.511 139.285 154.975L127.428 160.577L126.974 160.178L136.132 153.748C136.74 153.322 137.041 152.576 136.901 151.845C136.827 151.461 136.602 151.124 136.277 150.91L136.277 150.909Z" fill="url(#paint7_linear_16650_61962)"/>
<path d="M50.5392 185.705L53.3614 187.248L50.5392 188.79L48.9952 191.61L47.4513 188.79L44.6284 187.248L47.4513 185.705L48.9952 182.885L50.5392 185.705Z" fill="#0580B5"/>
<path d="M41.9551 195.637L43.3662 196.408L41.9551 197.179L41.1828 198.589L40.4111 197.179L39 196.408L40.4111 195.637L41.1828 194.227L41.9551 195.637Z" fill="#0580B5"/>
<path d="M186.606 144.339L133.22 144.133L133.067 197.459L186.452 197.665L186.606 144.339Z" fill="#FE7569"/>
<path d="M189.709 139.316L130.145 139.086L130.118 148.514L189.682 148.744L189.709 139.316Z" fill="#FF928E"/>
<path d="M162.73 139.212L157.124 139.19L156.956 197.552L162.563 197.573L162.73 139.212Z" fill="#A9D163"/>
<g opacity="0.4">
<path d="M186.593 148.763L133.205 148.526L133.196 152.392L186.585 152.628L186.593 148.763Z" fill="#FE7569"/>
<path d="M186.593 148.763L133.205 148.526L133.196 152.392L186.585 152.628L186.593 148.763Z" fill="black" fill-opacity="0.2"/>
</g>
<path d="M143.889 161.035L107.422 160.894L107.318 197.319L143.784 197.46L143.889 161.035Z" fill="#FE786C"/>
<path d="M146.008 157.603L105.322 157.446L105.303 163.886L145.99 164.043L146.008 157.603Z" fill="#FF928E"/>
<path d="M127.58 157.532L123.75 157.517L123.636 197.382L127.466 197.397L127.58 157.532Z" fill="#A9D163"/>
<g style="mix-blend-mode:multiply" opacity="0.3">
<path d="M143.88 164.056L107.412 163.894L107.405 166.847L143.874 167.009L143.88 164.056Z" fill="#FE786C"/>
<path d="M143.88 164.056L107.412 163.894L107.405 166.847L143.874 167.009L143.88 164.056Z" fill="black" fill-opacity="0.2"/>
</g>
<path d="M232.736 101.708L213.28 105.332C213.28 105.332 213.276 105.333 213.274 105.333C213.248 105.338 213.222 105.345 213.197 105.352C213.183 105.355 213.171 105.358 213.158 105.362C213.142 105.366 213.128 105.373 213.112 105.378C212.953 105.433 212.812 105.518 212.694 105.627C212.685 105.636 212.676 105.642 212.668 105.651C212.658 105.661 212.65 105.67 212.641 105.68C212.56 105.764 212.492 105.861 212.439 105.969C212.428 105.989 212.418 106.008 212.41 106.029C212.405 106.039 212.402 106.049 212.398 106.06C212.387 106.086 212.377 106.113 212.368 106.141C212.368 106.143 212.367 106.144 212.366 106.146L202.19 139.176L92.6356 138.754C92.2661 138.752 91.9171 138.923 91.6923 139.216C91.4674 139.509 91.3931 139.89 91.4902 140.246L107.514 198.888C107.657 199.413 108.132 199.758 108.652 199.76C108.655 199.76 108.659 199.759 108.663 199.76C108.666 199.759 108.669 199.76 108.672 199.76L168.81 199.992L169.472 199.994L185.03 200.054C185.03 200.054 185.033 200.055 185.035 200.054C185.037 200.054 185.04 200.054 185.042 200.054L191.863 200.08C195.136 200.093 197.53 200.968 198.979 202.681C200.224 204.154 200.852 206.317 200.843 209.112C200.829 214.072 196.777 218.092 191.811 218.073L88.6664 217.675C88.0126 217.673 87.4814 218.2 87.4793 218.853C87.4771 219.506 88.0058 220.037 88.6596 220.04L191.804 220.438C198.076 220.462 203.193 215.385 203.211 209.121C203.22 205.749 202.405 203.07 200.787 201.157C198.87 198.889 195.869 197.732 191.869 197.716L186.638 197.695L204.191 140.724C204.193 140.719 204.194 140.714 204.196 140.709L214.419 107.526L233.172 104.033C233.814 103.913 234.238 103.296 234.117 102.654C233.996 102.012 233.379 101.588 232.735 101.708L232.736 101.708ZM179.012 141.451L176.738 154.12L148.399 154.011L148.436 141.333L179.013 141.451L179.012 141.451ZM147.248 169.988L147.209 183.762L125.463 183.678L123.071 169.894L147.249 169.988L147.248 169.988ZM122.878 168.79L120.486 155.006L147.291 155.11L147.252 168.884L122.879 168.79L122.878 168.79ZM148.353 169.992L173.87 170.09L171.399 183.855L148.313 183.766L148.352 169.992L148.353 169.992ZM148.356 168.888L148.396 155.114L176.539 155.222L174.068 168.987L148.356 168.888ZM147.331 141.328L147.295 154.005L120.295 153.901L118.094 141.215L147.331 141.328ZM94.1847 141.123L116.971 141.211L119.173 153.897L97.6525 153.814L94.1847 141.123ZM97.9544 154.919L119.365 155.002L121.757 168.786L101.722 168.709L97.954 154.92L97.9544 154.919ZM102.024 169.813L121.948 169.889L124.34 183.673L105.792 183.602L102.024 169.813L102.024 169.813ZM109.561 197.397L106.093 184.707L124.531 184.778L126.733 197.463L109.561 197.397L109.561 197.397ZM127.855 197.468L125.654 184.782L147.206 184.865L147.169 197.543L127.855 197.469L127.855 197.468ZM148.274 197.547L148.311 184.869L171.202 184.957L168.928 197.626L148.275 197.547L148.274 197.547ZM184.165 197.685L170.05 197.631L172.324 184.962L188.066 185.022L184.165 197.685ZM188.406 183.92L172.522 183.859L174.994 170.094L192.645 170.162L188.406 183.921L188.406 183.92ZM192.984 169.06L175.191 168.991L177.662 155.227L197.223 155.302L192.985 169.06L192.984 169.06ZM197.563 154.199L177.86 154.124L180.135 141.455L201.464 141.537L197.563 154.199L197.563 154.199Z" fill="#4D4D4D"/>
<path d="M194.816 220.272C193.844 220.528 192.834 220.658 191.804 220.654L88.659 220.256C87.8864 220.254 87.2595 219.623 87.2617 218.851C87.2638 218.08 87.8944 217.455 88.6669 217.457L191.812 217.855C196.658 217.873 200.612 213.95 200.626 209.11C200.634 206.368 200.024 204.252 198.813 202.821C197.407 201.158 195.068 200.309 191.862 200.297L185.046 200.27C185.043 200.271 185.039 200.271 185.035 200.271L185.019 200.271L108.663 199.976C108.659 199.977 108.656 199.976 108.652 199.977C108.024 199.974 107.47 199.55 107.304 198.944L91.281 140.303C91.1667 139.884 91.2558 139.428 91.5203 139.084C91.7847 138.739 92.2017 138.534 92.6369 138.536L202.03 138.957L212.161 106.073L212.163 106.069C212.172 106.038 212.184 106.008 212.196 105.979L212.198 105.972C212.202 105.962 212.206 105.952 212.209 105.943C212.219 105.921 212.228 105.902 212.238 105.883L212.244 105.871C212.307 105.745 212.387 105.63 212.484 105.529L212.49 105.522C212.499 105.513 212.507 105.504 212.516 105.495C212.524 105.487 212.532 105.48 212.54 105.473L212.546 105.467C212.69 105.335 212.856 105.235 213.042 105.172L213.054 105.167C213.067 105.163 213.081 105.158 213.096 105.153C213.108 105.15 213.12 105.147 213.132 105.144L213.142 105.141C213.169 105.134 213.198 105.126 213.226 105.121L213.23 105.12L213.243 105.117L232.696 101.494C233.455 101.353 234.189 101.855 234.331 102.613C234.4 102.98 234.321 103.353 234.11 103.661C233.899 103.97 233.58 104.177 233.212 104.245L214.588 107.714L186.932 197.478L191.87 197.497C195.936 197.513 198.992 198.696 200.953 201.015C202.605 202.969 203.438 205.696 203.428 209.12C203.419 212.208 202.204 215.109 200.006 217.29C198.541 218.744 196.757 219.759 194.815 220.271L194.816 220.272ZM88.4162 217.924C88.0038 218.032 87.6981 218.407 87.6969 218.853C87.6955 219.386 88.1279 219.82 88.6608 219.822L191.806 220.22C194.78 220.231 197.584 219.082 199.7 216.983C201.815 214.884 202.985 212.091 202.994 209.119C203.003 205.801 202.205 203.169 200.621 201.296C198.747 199.08 195.802 197.948 191.869 197.933L186.345 197.912L186.431 197.632L214.25 107.337L233.132 103.82C233.386 103.773 233.606 103.63 233.751 103.417C233.897 103.204 233.951 102.948 233.904 102.694C233.806 102.171 233.3 101.824 232.776 101.922L213.327 105.545L213.316 105.547C213.295 105.551 213.274 105.557 213.253 105.562L213.221 105.57C213.215 105.572 213.209 105.574 213.204 105.576L213.184 105.583C213.056 105.627 212.941 105.695 212.842 105.786C212.837 105.792 212.831 105.796 212.826 105.801L212.814 105.812C212.81 105.818 212.804 105.824 212.799 105.829C212.733 105.899 212.677 105.978 212.634 106.065L212.627 106.079C212.621 106.09 212.615 106.102 212.609 106.115L212.608 106.119C212.606 106.127 212.603 106.133 212.601 106.139C212.592 106.161 212.583 106.183 212.576 106.206L212.573 106.216L202.351 139.393L202.191 139.393L92.6364 138.97C92.3369 138.969 92.0488 139.11 91.8664 139.348C91.684 139.585 91.6223 139.9 91.7015 140.189L107.725 198.83C107.838 199.245 108.217 199.537 108.646 199.542C108.652 199.542 108.658 199.542 108.664 199.542L108.68 199.542L191.865 199.863C195.205 199.876 197.655 200.777 199.147 202.541C200.426 204.053 201.071 206.264 201.062 209.112C201.05 213.368 198.135 216.948 194.198 217.986C193.436 218.187 192.637 218.292 191.812 218.289L88.6671 217.891C88.5809 217.891 88.4966 217.902 88.4174 217.923L88.4162 217.924ZM184.324 197.903L169.789 197.847L172.141 184.745L188.359 184.807L184.324 197.903L184.324 197.903ZM170.309 197.415L184.004 197.468L187.772 185.24L172.505 185.181L170.309 197.415ZM169.109 197.845L148.056 197.763L148.093 184.652L171.461 184.742L169.109 197.844L169.109 197.845ZM148.491 197.331L168.745 197.409L170.941 185.175L148.526 185.088L148.491 197.331ZM147.385 197.761L127.671 197.685L125.394 184.564L147.422 184.649L147.385 197.761L147.385 197.761ZM128.038 197.252L146.952 197.325L146.987 185.082L125.911 185.001L128.038 197.252ZM188.565 184.139L172.261 184.076L174.811 169.877L192.937 169.947L188.565 184.139ZM172.781 183.644L188.244 183.704L192.35 170.379L175.174 170.312L172.78 183.643L172.781 183.644ZM126.991 197.683L109.395 197.615L105.808 184.49L124.714 184.562L126.991 197.683L126.991 197.683ZM109.727 197.182L126.474 197.247L124.348 184.995L106.378 184.926L109.726 197.182L109.727 197.182ZM171.581 184.074L148.096 183.983L148.137 169.775L148.354 169.776L174.131 169.875L171.582 184.074L171.581 184.074ZM148.532 183.551L171.218 183.638L173.611 170.307L148.571 170.211L148.532 183.551L148.532 183.551ZM147.426 183.981L147.208 183.98L125.279 183.895L122.812 169.677L147.467 169.772L147.426 183.98L147.426 183.981ZM125.645 183.463L146.992 183.545L147.03 170.205L123.329 170.114L125.645 183.463L125.645 183.463ZM193.144 169.279L174.931 169.209L177.48 155.01L197.517 155.087L193.145 169.279L193.144 169.279ZM175.45 168.777L192.823 168.844L196.928 155.519L177.843 155.445L175.449 168.776L175.45 168.777ZM124.599 183.893L105.626 183.82L101.739 169.596L122.132 169.675L124.599 183.893ZM105.958 183.387L124.082 183.457L121.766 170.108L102.31 170.033L105.959 183.388L105.958 183.387ZM174.251 169.206L174.068 169.206L148.139 169.106L148.179 154.897L176.799 155.007L174.251 169.206ZM148.575 168.673L173.887 168.77L176.281 155.439L148.613 155.333L148.575 168.673L148.575 168.673ZM147.469 169.103L147.251 169.102L122.696 169.008L120.229 154.789L147.51 154.894L147.469 169.103L147.469 169.103ZM123.062 168.575L147.035 168.667L147.073 155.327L120.745 155.225L123.061 168.575L123.062 168.575ZM197.723 154.418L177.601 154.341L179.953 141.238L201.757 141.322L197.723 154.418L197.723 154.418ZM178.12 153.909L197.402 153.983L201.17 141.755L180.316 141.674L178.12 153.909ZM122.016 169.005L101.557 168.926L97.6702 154.702L119.549 154.787L122.016 169.005L122.016 169.005ZM101.889 168.493L121.498 168.568L119.182 155.218L98.2396 155.138L101.888 168.492L101.889 168.493ZM176.92 154.338L176.737 154.337L148.182 154.228L148.219 141.116L179.272 141.235L176.92 154.338L176.92 154.338ZM148.617 153.795L176.557 153.902L178.753 141.668L148.653 141.552L148.618 153.795L148.617 153.795ZM147.511 154.225L120.112 154.12L117.835 141L118.094 141.001L147.549 141.114L147.511 154.226L147.511 154.225ZM120.478 153.687L147.078 153.79L147.113 141.547L118.352 141.436L120.478 153.687ZM119.432 154.117L97.4868 154.032L93.9006 140.907L117.155 140.997L119.432 154.117ZM97.819 153.599L118.915 153.681L116.789 141.43L94.4696 141.343L97.8184 153.6L97.819 153.599Z" fill="#4D4D4D"/>
<path d="M115.088 222.631C111.301 222.616 108.212 225.682 108.201 229.464C108.189 233.247 111.262 236.336 115.048 236.351C118.835 236.366 121.925 233.3 121.936 229.517C121.947 225.735 118.875 222.646 115.088 222.631ZM119.568 229.508C119.562 231.987 117.537 233.996 115.055 233.986C112.573 233.977 110.56 231.952 110.568 229.473C110.575 226.995 112.6 224.986 115.081 224.996C117.563 225.005 119.576 227.03 119.568 229.508Z" fill="#4D4D4D"/>
<path d="M116.881 236.335C116.296 236.489 115.681 236.57 115.048 236.568C111.141 236.552 107.972 233.366 107.983 229.463C107.994 225.561 111.181 222.399 115.088 222.413C116.978 222.421 118.754 223.165 120.09 224.508C121.426 225.851 122.158 227.63 122.152 229.517C122.143 232.787 119.904 235.537 116.88 236.334L116.881 236.335ZM113.366 223.066C110.528 223.814 108.426 226.396 108.417 229.465C108.406 233.128 111.382 236.119 115.049 236.133C115.643 236.136 116.22 236.059 116.769 235.914C119.608 235.166 121.71 232.585 121.718 229.516C121.723 227.744 121.036 226.074 119.782 224.813C118.528 223.552 116.861 222.854 115.087 222.847C114.492 222.845 113.916 222.921 113.366 223.066ZM116.28 234.047C115.885 234.151 115.473 234.204 115.054 234.203C113.796 234.198 112.613 233.703 111.724 232.808C110.834 231.914 110.347 230.729 110.35 229.472C110.357 226.874 112.48 224.769 115.081 224.778C117.683 224.788 119.793 226.91 119.786 229.509C119.782 230.765 119.288 231.946 118.393 232.834C117.796 233.426 117.071 233.839 116.28 234.047ZM113.972 225.353C112.144 225.835 110.79 227.498 110.785 229.475C110.782 230.616 111.225 231.691 112.032 232.503C112.839 233.316 113.914 233.765 115.056 233.77C116.198 233.774 117.274 233.332 118.087 232.527C118.899 231.721 119.348 230.649 119.351 229.508C119.358 227.149 117.442 225.222 115.081 225.213C114.697 225.212 114.326 225.261 113.972 225.354L113.972 225.353Z" fill="#4D4D4D"/>
<path d="M175.551 222.864C171.764 222.849 168.675 225.915 168.663 229.697C168.652 233.48 171.724 236.569 175.511 236.584C179.298 236.599 182.388 233.533 182.399 229.75C182.41 225.968 179.338 222.879 175.551 222.864ZM180.031 229.741C180.024 232.22 177.999 234.229 175.518 234.219C173.036 234.21 171.023 232.185 171.031 229.706C171.038 227.228 173.063 225.219 175.544 225.229C178.026 225.238 180.039 227.263 180.031 229.741Z" fill="#4D4D4D"/>
<path d="M177.345 236.568C176.76 236.722 176.145 236.803 175.512 236.801C173.622 236.793 171.845 236.049 170.51 234.706C169.174 233.363 168.442 231.584 168.447 229.697C168.458 225.794 171.646 222.632 175.552 222.647C179.459 222.662 182.628 225.849 182.617 229.751C182.608 233.021 180.369 235.771 177.345 236.568L177.345 236.568ZM173.83 223.299C170.992 224.047 168.89 226.629 168.881 229.698C168.876 231.469 169.564 233.139 170.818 234.4C172.072 235.661 173.739 236.359 175.513 236.366C176.107 236.368 176.684 236.292 177.233 236.147C180.072 235.399 182.174 232.818 182.182 229.748C182.193 226.085 179.218 223.094 175.551 223.08C174.956 223.078 174.38 223.154 173.83 223.299ZM176.739 234.28C176.349 234.383 175.94 234.437 175.518 234.435C172.917 234.425 170.807 232.303 170.814 229.705C170.821 227.106 172.944 225.001 175.545 225.01C178.147 225.02 180.257 227.142 180.25 229.741C180.243 231.918 178.752 233.749 176.739 234.28L176.739 234.28ZM174.436 225.586C172.608 226.068 171.254 227.73 171.249 229.707C171.242 232.066 173.158 233.992 175.519 234.001C177.881 234.01 179.808 232.098 179.814 229.739C179.821 227.381 177.905 225.454 175.544 225.445C175.16 225.443 174.789 225.492 174.435 225.586L174.436 225.586Z" fill="#4D4D4D"/>
<path d="M175.539 227.195C174.143 227.189 173.004 228.32 173 229.714C172.996 231.109 174.129 232.248 175.525 232.253C176.921 232.259 178.06 231.128 178.064 229.734C178.068 228.339 176.936 227.2 175.539 227.195ZM176.959 229.729C176.957 230.515 176.315 231.152 175.528 231.149C174.741 231.146 174.103 230.504 174.105 229.718C174.108 228.932 174.75 228.295 175.537 228.298C176.323 228.301 176.962 228.943 176.959 229.729Z" fill="#4D4D4D"/>
<path d="M176.236 232.38C176.009 232.44 175.771 232.471 175.525 232.47C174.009 232.464 172.779 231.228 172.783 229.714C172.786 228.981 173.074 228.293 173.595 227.776C174.116 227.259 174.807 226.975 175.54 226.978C177.056 226.984 178.286 228.221 178.282 229.735C178.278 231.003 177.409 232.071 176.236 232.38L176.236 232.38ZM174.938 227.488C174.55 227.59 174.193 227.793 173.901 228.083C173.463 228.519 173.219 229.098 173.218 229.715C173.214 230.99 174.25 232.031 175.526 232.036C176.802 232.041 177.843 231.007 177.847 229.733C177.851 228.457 176.815 227.416 175.539 227.411C175.333 227.411 175.132 227.437 174.938 227.488ZM175.953 231.312C175.817 231.348 175.675 231.367 175.527 231.366C175.089 231.364 174.677 231.192 174.366 230.88C174.057 230.568 173.887 230.155 173.887 229.717C173.89 228.811 174.63 228.077 175.537 228.081C175.975 228.082 176.387 228.255 176.698 228.567C177.007 228.879 177.177 229.292 177.177 229.73C177.174 230.489 176.654 231.127 175.953 231.312L175.953 231.312ZM175.223 228.555C174.706 228.691 174.324 229.161 174.322 229.719C174.321 230.041 174.446 230.345 174.675 230.575C174.903 230.804 175.206 230.931 175.528 230.932C176.196 230.935 176.74 230.395 176.742 229.728C176.743 229.406 176.618 229.102 176.389 228.873C176.161 228.644 175.858 228.516 175.536 228.515C175.428 228.515 175.323 228.528 175.223 228.555Z" fill="#4D4D4D"/>
<path d="M115.076 226.962C113.679 226.956 112.54 228.087 112.536 229.481C112.532 230.876 113.665 232.015 115.061 232.021C116.457 232.026 117.597 230.895 117.601 229.501C117.605 228.106 116.472 226.967 115.076 226.962ZM116.496 229.496C116.493 230.282 115.851 230.919 115.064 230.916C114.278 230.913 113.639 230.271 113.641 229.485C113.644 228.699 114.286 228.062 115.073 228.065C115.859 228.068 116.498 228.71 116.496 229.496Z" fill="#4D4D4D"/>
<path d="M115.771 232.146C115.544 232.206 115.306 232.238 115.06 232.237C113.544 232.231 112.314 230.994 112.319 229.48C112.323 227.966 113.56 226.739 115.076 226.745C115.809 226.748 116.498 227.036 117.017 227.557C117.535 228.078 117.82 228.769 117.817 229.501C117.814 230.77 116.945 231.838 115.772 232.147L115.771 232.146ZM114.476 227.255C113.488 227.515 112.756 228.413 112.753 229.482C112.75 230.757 113.785 231.798 115.061 231.803C116.338 231.808 117.379 230.774 117.383 229.5C117.384 228.884 117.145 228.302 116.709 227.863C116.272 227.425 115.692 227.181 115.075 227.179C114.868 227.178 114.667 227.205 114.476 227.255L114.476 227.255ZM115.491 231.079C115.353 231.115 115.209 231.134 115.064 231.133C114.625 231.131 114.213 230.959 113.903 230.647C113.593 230.335 113.423 229.922 113.424 229.484C113.426 228.578 114.166 227.844 115.073 227.848C115.98 227.851 116.715 228.591 116.713 229.497C116.711 229.935 116.539 230.346 116.227 230.656C116.019 230.862 115.766 231.006 115.491 231.079ZM114.759 228.322C114.243 228.458 113.86 228.928 113.858 229.486C113.858 229.809 113.983 230.113 114.211 230.342C114.439 230.571 114.742 230.698 115.065 230.699C115.387 230.7 115.691 230.576 115.921 230.348C116.15 230.12 116.277 229.817 116.278 229.495C116.28 228.829 115.738 228.285 115.071 228.282C114.963 228.282 114.858 228.295 114.758 228.322L114.759 228.322Z" fill="#4D4D4D"/>
<path d="M247.01 87.7006L250.364 88.5294L247.859 90.9029L247.033 94.2535L244.653 91.7479L241.298 90.9191L243.804 88.5456L244.631 85.1948L247.01 87.7006Z" fill="#0580B5"/>
<path d="M91.5909 130.836L89.6328 123.45C89.484 122.889 88.9077 122.554 88.3459 122.702C87.7842 122.85 87.4493 123.425 87.5981 123.987L89.5562 131.373C89.705 131.934 90.2813 132.269 90.843 132.121C91.4048 131.973 91.7397 131.398 91.5909 130.836Z" fill="#F42232"/>
<path d="M84.6939 142.684C84.5451 142.122 83.9689 141.787 83.4071 141.935L76.0144 143.884C75.4526 144.032 75.1177 144.607 75.2665 145.169C75.4153 145.73 75.9916 146.065 76.5534 145.917L83.946 143.968C84.5078 143.82 84.8427 143.245 84.6939 142.684Z" fill="#F42232"/>
<path d="M85.4961 135.221C85.4271 134.961 85.2585 134.727 85.0072 134.581L78.5838 130.845C78.0812 130.553 77.4366 130.723 77.1445 131.225C76.8524 131.726 77.0232 132.371 77.5257 132.663L83.9492 136.398C84.4517 136.69 85.0964 136.52 85.3884 136.019C85.5345 135.768 85.5651 135.481 85.4961 135.221Z" fill="#F42232"/>
<path fill-rule="evenodd" clip-rule="evenodd" d="M159.869 87.4694C157.073 85.2241 153.594 84 150.008 84C146.421 84 142.942 85.2241 140.147 87.4694C139.393 88.074 139.273 89.1765 139.877 89.929C140.483 90.6824 141.584 90.8031 142.338 90.1985C144.513 88.452 147.218 87.5 150.008 87.5C152.797 87.5 155.503 88.452 157.677 90.1985C158.431 90.8031 159.533 90.6824 160.138 89.929C160.742 89.1765 160.622 88.074 159.869 87.4694Z" fill="#FF4150" fill-opacity="0.2"/>
<path fill-rule="evenodd" clip-rule="evenodd" d="M166.443 79.282C161.783 75.5396 155.985 73.5 150.008 73.5C144.031 73.5 138.233 75.5396 133.572 79.282C132.819 79.8866 132.698 80.9891 133.303 81.7425C133.908 82.495 135.01 82.6157 135.764 82.0111C139.803 78.7675 144.828 77 150.008 77C155.188 77 160.213 78.7675 164.252 82.0111C165.004 82.6157 166.107 82.495 166.711 81.7425C167.316 80.9891 167.196 79.8866 166.443 79.282Z" fill="#FF4150" fill-opacity="0.2"/>
<path fill-rule="evenodd" clip-rule="evenodd" d="M173.017 71.0946C166.493 65.856 158.376 63 150.008 63C141.64 63 133.523 65.856 126.998 71.0946C126.245 71.6992 126.125 72.8017 126.73 73.5551C127.334 74.3085 128.437 74.4284 129.189 73.8237C135.093 69.0839 142.437 66.5 150.008 66.5C157.579 66.5 164.922 69.0839 170.826 73.8237C171.579 74.4284 172.682 74.3085 173.287 73.5551C173.891 72.8017 173.77 71.6992 173.017 71.0946Z" fill="#FF4150" fill-opacity="0.2"/>
<path fill-rule="evenodd" clip-rule="evenodd" d="M145.263 97.4873L152.263 104.487C152.945 105.171 154.055 105.171 154.737 104.487C155.42 103.805 155.42 102.695 154.737 102.013L147.737 95.0127C147.055 94.3294 145.945 94.3294 145.263 95.0127C144.579 95.6952 144.579 96.8048 145.263 97.4873Z" fill="#F42232"/>
<path fill-rule="evenodd" clip-rule="evenodd" d="M147.737 104.487L154.737 97.4873C155.42 96.8048 155.42 95.6952 154.737 95.0127C154.055 94.3294 152.945 94.3294 152.263 95.0127L145.263 102.013C144.579 102.695 144.579 103.805 145.263 104.487C145.945 105.171 147.055 105.171 147.737 104.487Z" fill="#F42232"/>
<defs>
<linearGradient id="paint0_linear_16650_61962" x1="142.317" y1="135.483" x2="145.941" y2="145.732" gradientUnits="userSpaceOnUse">
<stop stop-color="#A9CF4B"/>
<stop offset="1" stop-color="#AAD47F"/>
</linearGradient>
<linearGradient id="paint1_linear_16650_61962" x1="160.134" y1="135.483" x2="163.758" y2="145.731" gradientUnits="userSpaceOnUse">
<stop stop-color="#A9CF4B"/>
<stop offset="1" stop-color="#AAD47F"/>
</linearGradient>
<linearGradient id="paint2_linear_16650_61962" x1="143.873" y1="127.401" x2="155.961" y2="142.193" gradientUnits="userSpaceOnUse">
<stop stop-color="#A9CF4B"/>
<stop offset="1" stop-color="#AAD47F"/>
</linearGradient>
<linearGradient id="paint3_linear_16650_61962" x1="159.08" y1="127.401" x2="171.169" y2="142.192" gradientUnits="userSpaceOnUse">
<stop stop-color="#A9CF4B"/>
<stop offset="1" stop-color="#AAD47F"/>
</linearGradient>
<linearGradient id="paint4_linear_16650_61962" x1="108.51" y1="155.945" x2="112.134" y2="166.194" gradientUnits="userSpaceOnUse">
<stop stop-color="#A9CF4B"/>
<stop offset="1" stop-color="#AAD47F"/>
</linearGradient>
<linearGradient id="paint5_linear_16650_61962" x1="126.327" y1="155.945" x2="129.951" y2="166.194" gradientUnits="userSpaceOnUse">
<stop stop-color="#A9CF4B"/>
<stop offset="1" stop-color="#AAD47F"/>
</linearGradient>
<linearGradient id="paint6_linear_16650_61962" x1="110.065" y1="147.864" x2="122.154" y2="162.655" gradientUnits="userSpaceOnUse">
<stop stop-color="#A9CF4B"/>
<stop offset="1" stop-color="#AAD47F"/>
</linearGradient>
<linearGradient id="paint7_linear_16650_61962" x1="125.272" y1="147.864" x2="137.361" y2="162.655" gradientUnits="userSpaceOnUse">
<stop stop-color="#A9CF4B"/>
<stop offset="1" stop-color="#AAD47F"/>
</linearGradient>
</defs>
</svg>
